<svg aria-hidden="true" style="position: absolute; width: 0; height: 0; overflow: hidden;" version="1.1" xmlns="http://www.w3.org/2000/svg" xmlns:xlink="http://www.w3.org/1999/xlink">
<defs>
<symbol id="icon-snapchat" viewBox="0 0 32 32">
<path fill="#fffc00" style="fill: var(--color1, #fffc00)" d="M16.275 1.057c1.32 0 5.796 0.368 7.907 5.095 0.705 1.591 0.537 4.292 0.399 6.463l-0.004 0.080c-0.016 0.24-0.029 0.46-0.040 0.68 0.1 0.060 0.271 0.12 0.535 0.12 0.4-0.021 0.879-0.16 1.377-0.401 0.22-0.117 0.459-0.139 0.619-0.139 0.243 0 0.479 0.039 0.679 0.12 0.6 0.199 0.979 0.639 0.979 1.117 0.020 0.599-0.52 1.119-1.617 1.557-0.119 0.039-0.279 0.1-0.459 0.159-0.6 0.18-1.519 0.48-1.777 1.080-0.12 0.299-0.081 0.699 0.16 1.157l0.020 0.020c0.080 0.181 2.035 4.633 6.388 5.352 0.34 0.059 0.58 0.36 0.56 0.679 0 0.1-0.020 0.199-0.060 0.3-0.32 0.759-1.697 1.317-4.195 1.695-0.079 0.121-0.16 0.5-0.219 0.76-0.039 0.239-0.099 0.48-0.179 0.737-0.101 0.361-0.36 0.54-0.74 0.54h-0.040c-0.18 0-0.417-0.041-0.717-0.099-0.48-0.1-1.020-0.18-1.697-0.18-0.4 0-0.799 0.020-1.217 0.099-0.8 0.139-1.497 0.619-2.297 1.179-1.137 0.799-2.435 1.717-4.392 1.717-0.080 0-0.159-0.020-0.24-0.020h-0.199c-1.957 0-3.236-0.9-4.372-1.717-0.799-0.56-1.476-1.039-2.276-1.179-0.419-0.060-0.839-0.099-1.237-0.099-0.72 0-1.277 0.119-1.696 0.199-0.281 0.057-0.521 0.099-0.72 0.099-0.499 0-0.697-0.299-0.777-0.56-0.081-0.256-0.12-0.519-0.18-0.756-0.061-0.241-0.14-0.659-0.221-0.76-2.557-0.296-3.933-0.856-4.252-1.635-0.041-0.084-0.069-0.2-0.073-0.3-0.020-0.324 0.22-0.62 0.56-0.679 4.352-0.72 6.307-5.172 6.388-5.36l0.021-0.039c0.24-0.46 0.299-0.86 0.159-1.159-0.26-0.579-1.179-0.877-1.776-1.079-0.161-0.039-0.32-0.099-0.461-0.159-1.476-0.58-1.676-1.24-1.596-1.697 0.12-0.639 0.899-1.057 1.557-1.057 0.195 0 0.36 0.039 0.511 0.099 0.56 0.259 1.052 0.4 1.472 0.4 0.312 0 0.512-0.080 0.62-0.14l-0.061-0.759c-0.131-2.168-0.3-4.868 0.409-6.449 2.052-4.703 6.515-5.063 7.832-5.063l0.559-0.020z"></path>
</symbol>
<symbol id="icon-discord" viewBox="0 0 24 19">
<path d="M20.0458 1.65423C18.5316 0.952518 16.9189 0.43547 15.22 0.140015C15.0107 0.509334 14.7645 1.01407 14.6045 1.42032C12.8071 1.14949 11.0221 1.14949 9.26168 1.42032C9.08933 1.01407 8.84312 0.509334 8.63384 0.140015C6.93497 0.43547 5.32227 0.952518 3.80806 1.65423C0.755018 6.25841 -0.0697966 10.7518 0.336455 15.1714C2.36771 16.6856 4.32511 17.5966 6.25788 18.1998C6.738 17.5473 7.15656 16.8456 7.52588 16.1193C6.82417 15.8608 6.1594 15.5284 5.53155 15.1467C5.7039 15.0236 5.86394 14.8882 6.02398 14.7651C9.8772 16.5625 14.0505 16.5625 17.8545 14.7651C18.0145 14.9005 18.1746 15.0236 18.3469 15.1467C17.7191 15.5284 17.042 15.8485 16.3526 16.1193C16.7219 16.8456 17.1405 17.5473 17.6206 18.1998C19.5534 17.5966 21.5231 16.6856 23.542 15.1714C24.0222 10.0378 22.7172 5.59364 20.0704 1.65423H20.0458ZM8.04293 12.463C6.88573 12.463 5.9378 11.392 5.9378 10.0748C5.9378 8.75751 6.8611 7.68648 8.04293 7.68648C9.22475 7.68648 10.1603 8.75751 10.148 10.0748C10.148 11.3797 9.22475 12.463 8.04293 12.463ZM15.8109 12.463C14.6537 12.463 13.7058 11.392 13.7058 10.0748C13.7058 8.75751 14.6291 7.68648 15.8109 7.68648C16.9928 7.68648 17.9284 8.75751 17.9161 10.0748C17.9161 11.3797 16.9928 12.463 15.8109 12.463Z"/>
</symbol>
<symbol id="icon-location_on" viewBox="0 0 24 24">
<path d="M12 11.484q1.031 0 1.758-0.727t0.727-1.758-0.727-1.758-1.758-0.727-1.758 0.727-0.727 1.758 0.727 1.758 1.758 0.727zM12 2.016q2.906 0 4.945 2.039t2.039 4.945q0 1.453-0.727 3.328t-1.758 3.516-2.039 3.070-1.711 2.273l-0.75 0.797q-0.281-0.328-0.75-0.867t-1.688-2.156-2.133-3.141-1.664-3.445-0.75-3.375q0-2.906 2.039-4.945t4.945-2.039z"></path>
</symbol>
<symbol id="icon-phone" viewBox="0 0 24 24">
<path d="M6.609 10.781q2.25 4.359 6.609 6.609l2.203-2.203q0.469-0.469 1.031-0.234 1.688 0.563 3.563 0.563 0.422 0 0.703 0.281t0.281 0.703v3.516q0 0.422-0.281 0.703t-0.703 0.281q-7.031 0-12.023-4.992t-4.992-12.023q0-0.422 0.281-0.703t0.703-0.281h3.516q0.422 0 0.703 0.281t0.281 0.703q0 1.875 0.563 3.563 0.188 0.609-0.234 1.031z"></path>
</symbol>
<symbol id="icon-mail_outline" viewBox="0 0 24 24">
<path d="M12 11.016l8.016-5.016h-16.031zM20.016 18v-9.984l-8.016 4.969-8.016-4.969v9.984h16.031zM20.016 3.984q0.797 0 1.383 0.609t0.586 1.406v12q0 0.797-0.586 1.406t-1.383 0.609h-16.031q-0.797 0-1.383-0.609t-0.586-1.406v-12q0-0.797 0.586-1.406t1.383-0.609h16.031z"></path>
</symbol>
<symbol id="icon-add" viewBox="0 0 24 24">
<path d="M18.984 12.984h-6v6h-1.969v-6h-6v-1.969h6v-6h1.969v6h6v1.969z"></path>
</symbol>
<symbol id="icon-clear" viewBox="0 0 24 24">
<path d="M18.984 6.422l-5.578 5.578 5.578 5.578-1.406 1.406-5.578-5.578-5.578 5.578-1.406-1.406 5.578-5.578-5.578-5.578 1.406-1.406 5.578 5.578 5.578-5.578z"></path>
</symbol>
<symbol id="icon-create" viewBox="0 0 24 24">
<path d="M20.719 7.031l-1.828 1.828-3.75-3.75 1.828-1.828q0.281-0.281 0.703-0.281t0.703 0.281l2.344 2.344q0.281 0.281 0.281 0.703t-0.281 0.703zM3 17.25l11.063-11.063 3.75 3.75-11.063 11.063h-3.75v-3.75z"></path>
</symbol>
<symbol id="icon-flag" viewBox="0 0 24 24">
<path d="M14.391 6h5.625v9.984h-7.031l-0.375-1.969h-5.625v6.984h-1.969v-17.016h9z"></path>
</symbol>
<symbol id="icon-whatsapp" viewBox="0 0 32 32">
<path d="M27.281 4.65c-2.994-3-6.975-4.65-11.219-4.65-8.738 0-15.85 7.112-15.85 15.856 0 2.794 0.731 5.525 2.119 7.925l-2.25 8.219 8.406-2.206c2.319 1.262 4.925 1.931 7.575 1.931h0.006c0 0 0 0 0 0 8.738 0 15.856-7.113 15.856-15.856 0-4.238-1.65-8.219-4.644-11.219zM16.069 29.050v0c-2.369 0-4.688-0.637-6.713-1.837l-0.481-0.288-4.987 1.306 1.331-4.863-0.313-0.5c-1.325-2.094-2.019-4.519-2.019-7.012 0-7.269 5.912-13.181 13.188-13.181 3.519 0 6.831 1.375 9.319 3.862 2.488 2.494 3.856 5.8 3.856 9.325-0.006 7.275-5.919 13.188-13.181 13.188zM23.294 19.175c-0.394-0.2-2.344-1.156-2.706-1.288s-0.625-0.2-0.894 0.2c-0.262 0.394-1.025 1.288-1.256 1.556-0.231 0.262-0.462 0.3-0.856 0.1s-1.675-0.619-3.188-1.969c-1.175-1.050-1.975-2.35-2.206-2.744s-0.025-0.613 0.175-0.806c0.181-0.175 0.394-0.463 0.594-0.694s0.262-0.394 0.394-0.662c0.131-0.262 0.069-0.494-0.031-0.694s-0.894-2.15-1.219-2.944c-0.319-0.775-0.65-0.669-0.894-0.681-0.231-0.012-0.494-0.012-0.756-0.012s-0.694 0.1-1.056 0.494c-0.363 0.394-1.387 1.356-1.387 3.306s1.419 3.831 1.619 4.1c0.2 0.262 2.794 4.269 6.769 5.981 0.944 0.406 1.681 0.65 2.256 0.837 0.95 0.3 1.813 0.256 2.494 0.156 0.762-0.113 2.344-0.956 2.675-1.881s0.331-1.719 0.231-1.881c-0.094-0.175-0.356-0.275-0.756-0.475z"></path>
</symbol>
<symbol id="icon-remove" viewBox="0 0 24 24">
<path d="M18.984 12.984h-13.969v-1.969h13.969v1.969z"></path>
</symbol>
<symbol id="icon-outlined_flag" viewBox="0 0 24 24">
<path d="M18 14.016v-6h-5.016l-0.984-2.016h-5.016v6h6l1.031 2.016h3.984zM14.016 6h6v9.984h-7.031l-0.984-1.969h-5.016v6.984h-1.969v-17.016h7.969z"></path>
</symbol>
<symbol id="icon-navigate_before" viewBox="0 0 24 24">
<path d="M15.422 7.406l-4.594 4.594 4.594 4.594-1.406 1.406-6-6 6-6z"></path>
</symbol>
<symbol id="icon-navigate_next" viewBox="0 0 24 24">
<path d="M9.984 6l6 6-6 6-1.406-1.406 4.594-4.594-4.594-4.594z"></path>
</symbol>
<symbol id="icon-check" viewBox="0 0 24 24">
<path d="M9 f6.172l10.594-10.594 1.406 1.406-12 12-5.578-5.578 1.406-1.406z"></path>
</symbol>
<symbol id="icon-notifications_none" viewBox="0 0 24 24">
<path d="M15.984 17.016v-6q0-1.922-1.078-3.211t-2.906-1.289-2.906 1.289-1.078 3.211v6h7.969zM18 15.984l2.016 2.016v0.984h-16.031v-0.984l2.016-2.016v-4.969q0-2.344 1.195-4.078t3.305-2.25v-0.703q0-0.609 0.422-1.055t1.078-0.445 1.078 0.445 0.422 1.055v0.703q2.109 0.516 3.305 2.25t1.195 4.078v4.969zM12 21.984q-0.797 0-1.406-0.586t-0.609-1.383h4.031q0 0.797-0.609 1.383t-1.406 0.586z"></path>
</symbol>
<symbol id="icon-person" viewBox="0 0 14 20">
<path d="M6.69467 10.3636C9.55608 10.3636 11.8761 8.04363 11.8761 5.1818C11.8761 2.32078 9.55608 0 6.69467 0C3.83288 0 1.51331 2.32078 1.51331 5.1818C1.51331 8.04363 3.83288 10.3636 6.69467 10.3636Z" fill="#E6E6E6"/>
<path d="M13.3304 15.3556C13.099 13.9699 11.9241 12.0545 11.0822 11.1578C10.8545 10.9151 10.4593 11.0161 10.3204 11.102C9.26411 11.7533 8.02419 12.1332 6.69462 12.1332C5.36508 12.1332 4.12516 11.7533 3.06891 11.102C2.93005 11.0161 2.53473 10.9151 2.307 11.1578C1.4652 12.0545 0.29028 13.9699 0.0589133 15.3556C-0.509524 18.7674 3.13516 20 6.69466 20C10.2541 20 13.8988 18.7674 13.3304 15.3556Z" fill="#E6E6E6"/>
</symbol>
<symbol id="icon-school" viewBox="0 0 24 24">
<path d="M12 3l11.016 6v8.016h-2.016v-6.938l-9 4.922-11.016-6zM5.016 13.172l6.984 3.844 6.984-3.844v4.031l-6.984 3.797-6.984-3.797v-4.031z"></path>
</symbol>
<symbol id="icon-info" viewBox="0 0 24 24">
<path d="M12.984 9v-2.016h-1.969v2.016h1.969zM12.984 17.016v-6h-1.969v6h1.969zM12 2.016q4.125 0 7.055 2.93t2.93 7.055-2.93 7.055-7.055 2.93-7.055-2.93-2.93-7.055 2.93-7.055 7.055-2.93z"></path>
</symbol>
<symbol id="icon-search" viewBox="0 0 24 24">
<path d="M9.516 14.016q1.875 0 3.188-1.313t1.313-3.188-1.313-3.188-3.188-1.313-3.188 1.313-1.313 3.188 1.313 3.188 3.188 1.313zM15.516 14.016l4.969 4.969-1.5 1.5-4.969-4.969v-0.797l-0.281-0.281q-1.781 1.547-4.219 1.547-2.719 0-4.617-1.875t-1.898-4.594 1.898-4.617 4.617-1.898 4.594 1.898 1.875 4.617q0 0.984-0.469 2.227t-1.078 1.992l0.281 0.281h0.797z"></path>
</symbol>
<symbol id="icon-local_fire_department" viewBox="0 0 24 24">
<path d="M14.719 17.625q-0.234 0.234-0.586 0.422t-0.633 0.281q-0.844 0.281-1.664 0.023t-1.383-0.727q-0.094-0.094-0.070-0.188t0.117-0.141q0.891-0.281 1.406-0.891t0.703-1.313q0.141-0.656-0.047-1.266t-0.281-1.266q-0.094-0.516-0.070-1.008t0.211-0.961q0-0.094 0.094-0.094t0.141 0.047q0.281 0.609 0.727 1.078t0.938 0.891 0.891 0.914 0.492 1.148q0.047 0.281 0.047 0.516 0.047 0.703-0.234 1.406t-0.797 1.125zM17.531 9.609q-0.563-0.516-1.172-0.938t-1.172-0.984q-1.125-1.125-1.477-2.625t0.117-3.047q0.094-0.234-0.070-0.398t-0.398-0.070q-0.563 0.234-1.055 0.563t-0.961 0.656q-1.453 1.219-2.297 2.883t-0.961 3.563 0.586 3.727q0 0.094 0.023 0.188t0.023 0.188q0 0.422-0.375 0.609t-0.75-0.141q-0.094-0.141-0.141-0.234-0.75-0.938-1.008-2.133t-0.070-2.367q0.047-0.281-0.211-0.422t-0.445 0.094q-0.938 1.219-1.359 2.695t-0.328 2.977q0 0.422 0.070 0.867t0.211 0.867q0.328 1.125 0.891 2.063 0.891 1.5 2.391 2.508t3.234 1.242q1.828 0.234 3.68-0.188t3.258-1.688q1.031-0.984 1.617-2.273t0.633-2.695-0.516-2.719q-0.047-0.094-0.070-0.164t-0.070-0.164q-0.422-0.797-0.938-1.453-0.188-0.281-0.398-0.516t-0.492-0.469z"></path>
</symbol>
<symbol id="icon-google" viewBox="0 0 32 32">
<path d="M16.319 13.713v5.487h9.075c-0.369 2.356-2.744 6.9-9.075 6.9-5.463 0-9.919-4.525-9.919-10.1s4.456-10.1 9.919-10.1c3.106 0 5.188 1.325 6.375 2.469l4.344-4.181c-2.788-2.612-6.4-4.188-10.719-4.188-8.844 0-16 7.156-16 16s7.156 16 16 16c9.231 0 15.363-6.494 15.363-15.631 0-1.050-0.113-1.85-0.25-2.65l-15.113-0.006z"></path>
</symbol>
<symbol id="icon-instagram" viewBox="0 0 32 32">
<path d="M16 2.881c4.275 0 4.781 0.019 6.462 0.094 1.563 0.069 2.406 0.331 2.969 0.55 0.744 0.288 1.281 0.638 1.837 1.194 0.563 0.563 0.906 1.094 1.2 1.838 0.219 0.563 0.481 1.412 0.55 2.969 0.075 1.688 0.094 2.194 0.094 6.463s-0.019 4.781-0.094 6.463c-0.069 1.563-0.331 2.406-0.55 2.969-0.288 0.744-0.637 1.281-1.194 1.837-0.563 0.563-1.094 0.906-1.837 1.2-0.563 0.219-1.413 0.481-2.969 0.55-1.688 0.075-2.194 0.094-6.463 0.094s-4.781-0.019-6.463-0.094c-1.563-0.069-2.406-0.331-2.969-0.55-0.744-0.288-1.281-0.637-1.838-1.194-0.563-0.563-0.906-1.094-1.2-1.837-0.219-0.563-0.481-1.413-0.55-2.969-0.075-1.688-0.094-2.194-0.094-6.463s0.019-4.781 0.094-6.463c0.069-1.563 0.331-2.406 0.55-2.969 0.288-0.744 0.638-1.281 1.194-1.838 0.563-0.563 1.094-0.906 1.838-1.2 0.563-0.219 1.412-0.481 2.969-0.55 1.681-0.075 2.188-0.094 6.463-0.094zM16 0c-4.344 0-4.887 0.019-6.594 0.094-1.7 0.075-2.869 0.35-3.881 0.744-1.056 0.412-1.95 0.956-2.837 1.85-0.894 0.888-1.438 1.781-1.85 2.831-0.394 1.019-0.669 2.181-0.744 3.881-0.075 1.713-0.094 2.256-0.094 6.6s0.019 4.887 0.094 6.594c0.075 1.7 0.35 2.869 0.744 3.881 0.413 1.056 0.956 1.95 1.85 2.837 0.887 0.887 1.781 1.438 2.831 1.844 1.019 0.394 2.181 0.669 3.881 0.744 1.706 0.075 2.25 0.094 6.594 0.094s4.888-0.019 6.594-0.094c1.7-0.075 2.869-0.35 3.881-0.744 1.050-0.406 1.944-0.956 2.831-1.844s1.438-1.781 1.844-2.831c0.394-1.019 0.669-2.181 0.744-3.881 0.075-1.706 0.094-2.25 0.094-6.594s-0.019-4.887-0.094-6.594c-0.075-1.7-0.35-2.869-0.744-3.881-0.394-1.063-0.938-1.956-1.831-2.844-0.887-0.887-1.781-1.438-2.831-1.844-1.019-0.394-2.181-0.669-3.881-0.744-1.712-0.081-2.256-0.1-6.6-0.1v0z"></path>
<path d="M16 7.781c-4.537 0-8.219 3.681-8.219 8.219s3.681 8.219 8.219 8.219 8.219-3.681 8.219-8.219c0-4.537-3.681-8.219-8.219-8.219zM16 21.331c-2.944 0-5.331-2.387-5.331-5.331s2.387-5.331 5.331-5.331c2.944 0 5.331 2.387 5.331 5.331s-2.387 5.331-5.331 5.331z"></path>
<path d="M26.462 7.456c0 1.060-0.859 1.919-1.919 1.919s-1.919-0.859-1.919-1.919c0-1.060 0.859-1.919 1.919-1.919s1.919 0.859 1.919 1.919z"></path>
</symbol>
<symbol id="icon-youtube" viewBox="0 0 32 32">
<path d="M31.681 9.6c0 0-0.313-2.206-1.275-3.175-1.219-1.275-2.581-1.281-3.206-1.356-4.475-0.325-11.194-0.325-11.194-0.325h-0.012c0 0-6.719 0-11.194 0.325-0.625 0.075-1.987 0.081-3.206 1.356-0.963 0.969-1.269 3.175-1.269 3.175s-0.319 2.588-0.319 5.181v2.425c0 2.587 0.319 5.181 0.319 5.181s0.313 2.206 1.269 3.175c1.219 1.275 2.819 1.231 3.531 1.369 2.563 0.244 10.881 0.319 10.881 0.319s6.725-0.012 11.2-0.331c0.625-0.075 1.988-0.081 3.206-1.356 0.962-0.969 1.275-3.175 1.275-3.175s0.319-2.587 0.319-5.181v-2.425c-0.006-2.588-0.325-5.181-0.325-5.181zM12.694 20.15v-8.994l8.644 4.513-8.644 4.481z"></path>
</symbol>
<symbol id="icon-linkedin" viewBox="0 0 24 23">
<path fill-rule="evenodd" clip-rule="evenodd" d="M5.89209 22.3869V7.29528H0.876463V22.3869H5.89209V22.3869ZM3.3848 5.23553C5.1333 5.23553 6.22248 4.07569 6.22248 2.6275C6.18942 1.14711 5.1333 0.0200195 3.41759 0.0200195C1.7016 0.0200653 0.579956 1.14716 0.579956 2.62754C0.579956 4.07574 1.66854 5.23557 3.35179 5.23557L3.3848 5.23553ZM8.66804 22.3869C8.66804 22.3869 8.73384 8.71128 8.66804 7.29533H13.6844V9.48394H13.6511C14.3107 8.45407 15.4991 6.94094 18.2048 6.94094C21.5057 6.94094 23.98 9.09791 23.98 13.7335V22.387H18.9644V14.3134C18.9644 12.2847 18.2387 10.9004 16.423 10.9004C15.0376 10.9004 14.212 11.8337 13.8494 12.7358C13.7167 13.0569 13.6844 13.5079 13.6844 13.9589V22.3869H8.66804Z"/>
</symbol>
<symbol id="icon-settings" viewBox="0 0 24 24">
<path d="M12 15.516q1.453 0 2.484-1.031t1.031-2.484-1.031-2.484-2.484-1.031-2.484 1.031-1.031 2.484 1.031 2.484 2.484 1.031zM19.453 12.984l2.109 1.641q0.328 0.234 0.094 0.656l-2.016 3.469q-0.188 0.328-0.609 0.188l-2.484-0.984q-0.984 0.703-1.688 0.984l-0.375 2.625q-0.094 0.422-0.469 0.422h-4.031q-0.375 0-0.469-0.422l-0.375-2.625q-0.891-0.375-1.688-0.984l-2.484 0.984q-0.422 0.141-0.609-0.188l-2.016-3.469q-0.234-0.422 0.094-0.656l2.109-1.641q-0.047-0.328-0.047-0.984t0.047-0.984l-2.109-1.641q-0.328-0.234-0.094-0.656l2.016-3.469q0.188-0.328 0.609-0.188l2.484 0.984q0.984-0.703 1.688-0.984l0.375-2.625q0.094-0.422 0.469-0.422h4.031q0.375 0 0.469 0.422l0.375 2.625q0.891 0.375 1.688 0.984l2.484-0.984q0.422-0.141 0.609 0.188l2.016 3.469q0.234 0.422-0.094 0.656l-2.109 1.641q0.047 0.328 0.047 0.984t-0.047 0.984z"></path>
</symbol>
<symbol id="icon-whatsapp-filled" viewBox="0 0 24 24">
<path fill="none" d="M0 0h24v24H0z"/>
<path fill-rule="nonzero" d="M2.004 22l1.352-4.968A9.954 9.954 0 0 1 2 12C2 6.477 6.477 2 12 2s10 4.477 10 10-4.477 10-10 10a9.954 9.954 0 0 1-5.03-1.355L2.004 22zM8.391 7.308a.961.961 0 0 0-.371.1 1.293 1.293 0 0 0-.294.228c-.12.113-.188.211-.261.306A2.729 2.729 0 0 0 6.9 9.62c.002.49.13.967.33 1.413.409.902 1.082 1.857 1.971 2.742.214.213.423.427.648.626a9.448 9.448 0 0 0 3.84 2.046l.569.087c.185.01.37-.004.556-.013a1.99 1.99 0 0 0 .833-.231c.166-.088.244-.132.383-.22 0 0 .043-.028.125-.09.135-.1.218-.171.33-.288.083-.086.155-.187.21-.302.078-.163.156-.474.188-.733.024-.198.017-.306.014-.373-.004-.107-.093-.218-.19-.265l-.582-.261s-.87-.379-1.401-.621a.498.498 0 0 0-.177-.041.482.482 0 0 0-.378.127v-.002c-.005 0-.072.057-.795.933a.35.35 0 0 1-.368.13 1.416 1.416 0 0 1-.191-.066c-.124-.052-.167-.072-.252-.109l-.005-.002a6.01 6.01 0 0 1-1.57-1c-.126-.11-.243-.23-.363-.346a6.296 6.296 0 0 1-1.02-1.268l-.059-.095a.923.923 0 0 1-.102-.205c-.038-.147.061-.265.061-.265s.243-.266.356-.41a4.38 4.38 0 0 0 .263-.373c.118-.19.155-.385.093-.536-.28-.684-.57-1.365-.868-2.041-.059-.134-.234-.23-.393-.249-.054-.006-.108-.012-.162-.016a3.385 3.385 0 0 0-.403.004z"/>
</symbol>


</defs>
</svg>
